<?xml version="1.0" encoding="utf-8"?>
<!-- Generator: Adobe Illustrator 23.0.5, SVG Export Plug-In . SVG Version: 6.00 Build 0)  -->
<svg version="1.1" id="Capa_1" xmlns="http://www.w3.org/2000/svg" xmlns:xlink="http://www.w3.org/1999/xlink" x="0px" y="0px"
	 viewBox="0 0 1280 1280" style="enable-background:new 0 0 1280 1280;" xml:space="preserve">
<style type="text/css">
	.st0{fill:#656D78;}
	.st1{fill:#545C66;}
	.st2{fill:#5D9CEC;}
	.st3{fill:#434A54;}
	.st4{fill:#E6E9ED;}
</style>
<title>Artboard 1</title>
<g>
	<path class="st0" d="M1023,349.5v182.6c0,9-7.2,16.5-15.8,16.5H735.9H608.2c-8.7,0-15.8-7.4-15.8-16.5V349.5
		c0-9,7.2-16.5,15.8-16.5h127.7h271C1015.6,333,1023,340.5,1023,349.5z"/>
	<path class="st1" d="M1023,565.3v165.9c0,9-7.2,16.5-15.8,16.5H735.9H608.2c-8.7,0-15.8-7.4-15.8-16.5V565.3
		c0-9,7.2-16.5,15.8-16.5h127.7h271C1015.6,548.8,1023,556.3,1023,565.3z"/>
	<path class="st0" d="M1023,764.4v165.9c0,9-7.2,16.5-15.8,16.5H735.9H608.2c-8.7,0-15.8-7.4-15.8-16.5V764.4
		c0-9,7.2-16.5,15.8-16.5h127.7h271C1015.6,747.9,1023,755.4,1023,764.4z"/>
	<path class="st2" d="M688.1,415.9c17.6,0,31.9,14.9,31.9,33.2c0,18.3-14.3,33.2-31.9,33.2c-17.6,0-31.9-14.9-31.9-33.2
		C656.2,430.8,670.5,415.9,688.1,415.9z"/>
	<path class="st2" d="M688.1,615c17.6,0,31.9,14.9,31.9,33.2c0,18.3-14.3,33.2-31.9,33.2c-17.6,0-31.9-14.9-31.9-33.2
		C656.2,630.2,670.5,615,688.1,615z"/>
	<path class="st3" d="M1134.6,565.3v165.9c0,9-7.2,16.5-15.8,16.5h-111.6c8.7,0,15.8-7.4,15.8-16.5V565.3c0-9-7.2-16.5-15.8-16.5
		h111.6C1127.5,548.8,1134.6,556.3,1134.6,565.3z"/>
	<path class="st1" d="M1134.6,349.5v182.6c0,9-7.2,16.5-15.8,16.5h-111.6c8.7,0,15.8-7.4,15.8-16.5V349.5c0-9-7.2-16.5-15.8-16.5
		h111.6C1127.5,333,1134.6,340.5,1134.6,349.5z"/>
	<path class="st1" d="M1134.6,764.4v165.9c0,9-7.2,16.5-15.8,16.5h-111.6c8.7,0,15.8-7.4,15.8-16.5V764.4c0-9-7.2-16.5-15.8-16.5
		h111.6C1127.5,747.9,1134.6,755.4,1134.6,764.4z"/>
	<path class="st2" d="M720.1,847.6c0-18.3-14.3-33.2-31.9-33.2c-17.6,0-31.9,14.9-31.9,33.2s14.3,33.2,31.9,33.2
		C705.8,880.5,720.1,865.9,720.1,847.6z"/>
	<path class="st4" d="M432.7,747.9c52.9,0,95.8,44.4,95.8,99.7c0,55-42.9,99.4-95.8,99.4c-41.9,0-77.1-27.6-90.2-66.4h-11
		c-13,38.8-48.3,66.4-90.2,66.4c-52.9,0-95.8-44.4-95.8-99.4c0-55,42.9-99.7,95.8-99.7H432.7z"/>
	<path d="M1006.9,565.3H608.5c-17.6,0-31.9-14.9-31.9-33.2V349.5c0-18.3,14.3-33.2,31.9-33.2h398.7c17.6,0,31.9,14.9,31.9,33.2
		v182.6C1038.9,550.4,1024.5,565.3,1006.9,565.3z M1006.9,532.1v16.5V532.1z M608.5,349.5v182.6h398.5V349.5H608.5z"/>
	<path d="M1118.5,565.3H735.9c-8.9,0-15.8-7.4-15.8-16.5c0-9.3,7.2-16.5,15.8-16.5h382.6V349.8H735.9c-8.9,0-15.8-7.4-15.8-16.5
		c0-9.3,7.2-16.5,15.8-16.5h382.6c17.6,0,31.9,14.9,31.9,33.2v182.6C1150.5,550.4,1136.2,565.3,1118.5,565.3z"/>
	<path d="M1118.5,764.4H735.9c-8.9,0-15.8-7.4-15.8-16.5c0-9,7.2-16.5,15.8-16.5h382.6V565.6H735.9c-8.9,0-15.8-7.4-15.8-16.5
		s7.2-16.5,15.8-16.5h382.6c17.6,0,31.9,14.9,31.9,33.2v165.9C1150.5,749.5,1136.2,764.4,1118.5,764.4z"/>
	<path d="M1118.5,963.5H735.9c-8.9,0-15.8-7.4-15.8-16.5s7.2-16.5,15.8-16.5h382.6V764.7H735.9c-8.9,0-15.8-7.4-15.8-16.5
		c0-9,7.2-16.5,15.8-16.5h382.6c17.6,0,31.9,14.9,31.9,33.2v165.9C1150.5,948.6,1136.2,963.5,1118.5,963.5z"/>
	<path d="M1006.9,764.4H608.5c-17.6,0-31.9-14.9-31.9-33.2V565.3c0-18.3,14.3-33.2,31.9-33.2c8.9,0,15.8,7.4,15.8,16.5
		c0,9-7.2,16.5-15.8,16.5v165.9h398.7V565c-8.9,0-15.8-7.4-15.8-16.5c0-9,7.2-16.5,15.8-16.5c17.6,0,31.9,14.9,31.9,33.2v165.9
		C1038.9,749.5,1024.5,764.4,1006.9,764.4z"/>
	<path d="M1006.9,963.5H608.5c-17.6,0-31.9-14.9-31.9-33.2V764.4c0-18.3,14.3-33.2,31.9-33.2c8.9,0,15.8,7.4,15.8,16.5
		c0,9-7.2,16.5-15.8,16.5V930h398.7V764.1c-8.9,0-15.8-7.4-15.8-16.5c0-9,7.2-16.5,15.8-16.5c17.6,0,31.9,14.9,31.9,33.2v165.9
		C1038.9,948.6,1024.5,963.5,1006.9,963.5z"/>
	<path d="M688.1,498.9c-26.3,0-47.8-22.3-47.8-49.7c0-27.4,21.5-49.7,47.8-49.7c26.3,0,47.8,22.3,47.8,49.7
		C735.9,476.5,714.5,498.9,688.1,498.9z M688.1,432.4c-8.7,0-15.8,7.4-15.8,16.5c0,9,7.2,16.5,15.8,16.5c8.7,0,15.8-7.4,15.8-16.5
		C704,439.9,696.8,432.4,688.1,432.4z"/>
	<path d="M815.6,482.4c-2.3,0-4.9-0.5-7.2-1.9c-7.9-4-11-14.1-7.2-22.3l15.8-33.2c3.8-8.2,13.5-11.4,21.5-7.4
		c7.9,4,11,14.1,7.2,22.3l-15.8,33.2C827.1,478.9,821.5,482.4,815.6,482.4z"/>
	<path d="M879.5,482.4c-2.3,0-4.9-0.5-7.2-1.9c-7.9-4-11-14.1-7.2-22.3L881,425c3.8-8.2,13.5-11.4,21.5-7.4s11,14.1,7.2,22.3
		l-15.8,33.2C891,478.9,885.1,482.4,879.5,482.4z"/>
	<path d="M943.1,482.4c-2.3,0-4.9-0.5-7.2-1.9c-7.9-4-11-14.1-7.2-22.3l15.8-33.2c3.8-8.2,13.5-11.4,21.5-7.4
		c7.9,4,11,14.1,7.2,22.3l-15.8,33.2C954.6,478.9,948.9,482.4,943.1,482.4z"/>
	<path d="M688.1,697.9c-26.3,0-47.8-22.3-47.8-49.7s21.5-49.7,47.8-49.7c26.3,0,47.8,22.3,47.8,49.7
		C735.9,675.6,714.5,697.9,688.1,697.9z M688.1,631.8c-8.7,0-15.8,7.4-15.8,16.5c0,9,7.2,16.5,15.8,16.5c8.7,0,15.8-7.4,15.8-16.5
		C704,639.2,696.8,631.8,688.1,631.8z"/>
	<path d="M815.6,681.5c-2.3,0-4.9-0.5-7.2-1.9c-7.9-4-11-14.1-7.2-22.3l15.8-33.2c3.8-8.2,13.5-11.4,21.5-7.4
		c7.9,4,11,14.1,7.2,22.3l-15.8,33.2C827.1,678,821.5,681.5,815.6,681.5z"/>
	<path d="M879.5,681.5c-2.3,0-4.9-0.5-7.2-1.9c-7.9-4-11-14.1-7.2-22.3l15.8-33.2c3.8-8.2,13.5-11.4,21.5-7.4
		c7.9,4,11,14.1,7.2,22.3l-15.8,33.2C891,678,885.1,681.5,879.5,681.5z"/>
	<path d="M943.1,681.5c-2.3,0-4.9-0.5-7.2-1.9c-7.9-4-11-14.1-7.2-22.3l15.8-33.2c3.8-8.2,13.5-11.4,21.5-7.4
		c7.9,4,11,14.1,7.2,22.3l-15.8,33.2C954.6,678,948.9,681.5,943.1,681.5z"/>
	<path d="M688.1,897.3c-26.3,0-47.8-22.3-47.8-49.7s21.5-49.7,47.8-49.7c26.3,0,47.8,22.3,47.8,49.7S714.5,897.3,688.1,897.3z
		 M688.1,830.8c-8.7,0-15.8,7.4-15.8,16.5c0,9,7.2,16.5,15.8,16.5c8.7,0,15.8-7.4,15.8-16.5C704,838.3,696.8,830.8,688.1,830.8z"/>
	<path d="M815.6,880.5c-2.3,0-4.9-0.5-7.2-1.9c-7.9-4-11-14.1-7.2-22.3l15.8-33.2c3.8-8.2,13.5-11.4,21.5-7.4
		c7.9,4,11,14.1,7.2,22.3l-15.8,33.2C827.1,877.3,821.5,880.5,815.6,880.5z"/>
	<path d="M879.5,880.5c-2.3,0-4.9-0.5-7.2-1.9c-7.9-4-11-14.1-7.2-22.3l15.8-33.2c3.8-8.2,13.5-11.4,21.5-7.4
		c7.9,4,11,14.1,7.2,22.3l-15.8,33.2C891,877.3,885.1,880.5,879.5,880.5z"/>
	<path d="M943.1,880.5c-2.3,0-4.9-0.5-7.2-1.9c-7.9-4-11-14.1-7.2-22.3l15.8-33.2c3.8-8.2,13.5-11.4,21.5-7.4
		c7.9,4,11,14.1,7.2,22.3l-15.8,33.2C954.6,877.3,948.9,880.5,943.1,880.5z"/>
	<path d="M241.1,897c-8.9,0-15.8-7.4-15.8-16.5v-66.4c0-9.3,7.2-16.5,15.8-16.5s15.8,7.4,15.8,16.5v66.4
		C257.2,889.6,250.1,897,241.1,897z"/>
	<path d="M273.1,863.8h-63.9c-8.9,0-15.8-7.4-15.8-16.5c0-9,7.2-16.5,15.8-16.5h63.9c8.9,0,15.8,7.4,15.8,16.5
		C288.9,856.3,282,863.8,273.1,863.8z"/>
	<path d="M401.6,863.8c-8.9,0-16.1-7.4-16.1-16.5c0-9,7.2-16.5,15.8-16.5h0.3c8.7,0,15.8,7.4,15.8,16.5
		C417.4,856.3,410.2,863.8,401.6,863.8z"/>
	<path d="M433.2,830.8c-8.9,0-16.1-7.4-16.1-16.5c0-9,7.2-16.5,15.8-16.5h0.3c8.7,0,15.8,7.4,15.8,16.5
		C449.1,823.4,442.2,830.8,433.2,830.8z"/>
	<path d="M433.5,897c-8.9,0-16.1-7.4-16.1-16.5s7.2-16.5,15.8-16.5h0.3c8.7,0,15.8,7.4,15.8,16.5S442.2,897,433.5,897z"/>
	<path d="M465.2,864.1c-8.9,0-16.1-7.4-16.1-16.5c0-9,7.2-16.5,15.8-16.5h0.3c8.7,0,15.8,7.4,15.8,16.5
		C481,856.6,474.1,864.1,465.2,864.1z"/>
	<path d="M336.9,747.9c-8.9,0-15.8-7.4-15.8-16.5v-16.7c0-9.3,7.2-16.5,15.8-16.5c8.7,0,15.8,7.4,15.8,16.5v16.7
		C352.8,740.5,345.9,747.9,336.9,747.9z"/>
	<path d="M336.9,731.2c-8.9,0-15.8-7.4-15.8-16.5c0-27.4,21.5-49.7,47.8-49.7c8.9,0,15.8,7.4,15.8,16.5c0,9-7.2,16.5-15.8,16.5
		s-15.8,7.4-15.8,16.5C352.8,723.7,345.9,731.2,336.9,731.2z"/>
	<path d="M464.6,697.9c-8.9,0-15.8-7.4-15.8-16.5c0-9,7.2-16.5,15.8-16.5s15.8-7.4,15.8-16.5c0-9-7.2-16.5-15.8-16.5
		c-8.9,0-15.8-7.4-15.8-16.5c0-9.3,7.2-16.5,15.8-16.5c26.3,0,47.8,22.3,47.8,49.7C512.4,675.6,491,697.9,464.6,697.9z"/>
	<path d="M209.5,631.5c-26.3,0-47.8-22.3-47.8-49.7s21.5-49.7,47.8-49.7c8.9,0,15.8,7.4,15.8,16.5s-7.2,16.5-15.8,16.5
		c-8.7,0-15.8,7.4-15.8,16.5c0,9,7.2,16.5,15.8,16.5c8.9,0,15.8,7.4,15.8,16.5C225.3,623.5,218.2,631.5,209.5,631.5z"/>
	<path d="M464.6,631.8H209.2c-8.9,0-15.8-7.4-15.8-16.5c0-9.3,7.2-16.5,15.8-16.5h255.2c8.9,0,15.8,7.4,15.8,16.5
		C480.5,624.3,473.3,631.8,464.6,631.8z"/>
	<path d="M592.4,565.3H209.2c-8.9,0-15.8-7.4-15.8-16.5c0-9.3,7.2-16.5,15.8-16.5h382.9c8.9,0,15.8,7.4,15.8,16.5
		C608.2,557.9,601,565.3,592.4,565.3z"/>
	<path d="M464.6,697.9h-95.8c-8.9,0-15.8-7.4-15.8-16.5c0-9,7.2-16.5,15.8-16.5h95.8c8.9,0,15.8,7.4,15.8,16.5
		C480.5,690.5,473.3,697.9,464.6,697.9z"/>
	<path d="M432.7,963.7c-39.6,0-75.9-22.1-95.8-56.3c-19.9,34.6-55.9,56.3-95.8,56.3c-61.6,0-111.6-52.1-111.6-116.1
		s50.1-116.1,111.6-116.1h191.6c61.6,0,111.6,52.1,111.6,116.1S494.3,963.7,432.7,963.7z M331.6,863.8h11c6.6,0,12.8,4.5,15.1,11.2
		c11.2,33.2,41.4,55.5,75.1,55.5c43.9,0,79.7-37.2,79.7-82.9s-35.8-82.9-79.7-82.9H241.4c-43.9,0-79.7,37.2-79.7,82.9
		s35.8,82.9,79.7,82.9c33.7,0,63.9-22.3,75.1-55.5C318.8,868.3,324.9,863.8,331.6,863.8z"/>
</g>
</svg>
